<svg width="28" height="30" viewBox="0 0 28 30" fill="none" xmlns="http://www.w3.org/2000/svg">
<g clip-path="url(#clip0_1403_19151)">
<path d="M27.601 8.43627C27.601 11.177 25.3783 13.3998 22.6376 13.3998C21.1528 13.3998 19.8206 12.7466 18.9113 11.7136C17.9834 10.626 16.6008 9.9354 15.0585 9.9354C12.2631 9.9354 9.93387 12.2014 9.93387 14.9968C9.93387 15.0097 9.93387 15.0227 9.93387 15.0342C9.93243 17.7749 7.70965 19.9977 4.96893 19.9977C2.22822 19.9977 0.00543213 17.7749 0.00543213 15.0342C0.00543213 6.7314 6.73709 -0.000301361 15.0398 -0.000301361C19.4005 -0.000301361 23.3094 1.87289 26.0559 4.83807C27.0069 5.74301 27.601 7.02058 27.601 8.43627Z" fill="#111111"/>
<path d="M4.96045 10.0003C7.70116 10.0003 9.92385 12.2235 9.92529 14.9642V15.0013C9.92529 17.7967 12.2549 20.0628 15.0503 20.0628C16.5925 20.0628 17.9749 19.3722 18.9028 18.2845C19.8121 17.2516 21.1447 16.599 22.6294 16.599C25.3699 16.5991 27.5921 18.8213 27.5923 21.5619C27.5923 22.9776 26.9983 24.2556 26.0474 25.1605C23.301 28.1255 19.3922 29.9983 15.0317 29.9984C12.1244 29.9984 9.41034 29.1718 7.10986 27.7425C5.83292 28.2785 3.77478 28.8103 1.82764 28.0814C1.80795 28.0744 1.06414 27.8063 1.70361 27.5384C1.72172 27.527 3.5172 26.3884 3.40479 24.4964C1.27525 21.9021 -0.00244141 18.5823 -0.00244141 14.9642C-0.00243554 12.2235 2.2198 10.0004 4.96045 10.0003Z" fill="#111111"/>
</g>
<defs>
<clipPath id="clip0_1403_19151">
<rect width="27.5985" height="30" fill="white"/>
</clipPath>
</defs>
</svg>
