<svg width="100" height="100" viewBox="0 0 100 100" fill="none" xmlns="http://www.w3.org/2000/svg">
<path fill-rule="evenodd" clip-rule="evenodd" d="M15.625 75.7031V69.375C15.625 68.5156 16.1719 67.8906 17.0312 67.8906H17.2656C18.125 67.8906 18.6719 68.5938 18.6719 69.375V82.6563C18.6719 85.8594 17.1094 88.4375 14.2969 90.0781C12.9687 90.8594 11.5625 91.25 10.0781 91.25H9.45312C6.25 91.25 3.67187 89.6875 2.03125 86.875C1.25 85.5469 0.859375 84.1406 0.859375 82.6563V82.0313C0.859375 78.8281 2.42188 76.25 5.23437 74.6094C6.5625 73.8281 7.96875 73.4375 9.45312 73.4375H10.0781C12.1875 73.5156 14.0625 74.2969 15.625 75.7031ZM3.82813 82.3438C3.82813 84.6875 5 86.4062 7.03125 87.5781C7.89063 88.0469 8.75 88.2813 9.6875 88.2813C11.9531 88.2813 13.6719 87.1875 14.8437 85.2344C15.3906 84.2969 15.625 83.3594 15.625 82.2656C15.625 80.2344 14.6875 78.6719 13.0469 77.5C12.0313 76.7969 10.9375 76.4063 9.76562 76.4063C7.26562 76.4063 5.46875 77.6563 4.375 79.9219C3.98438 80.7031 3.82813 81.5625 3.82813 82.3438ZM28.9844 73.5156H29.375C32.8125 73.5156 35.4688 75.1562 37.1094 78.2031C37.8125 79.375 38.125 80.7031 38.125 82.1094V82.7344C38.125 85.9375 36.5625 88.5156 33.75 90.1563C32.4219 90.9375 31.0156 91.3281 29.5313 91.3281H28.9063C25.7031 91.3281 23.125 89.7656 21.4844 86.9531C20.7031 85.625 20.3125 84.2188 20.3125 82.7344V82.1094C20.3125 78.9063 21.9531 76.3281 24.6875 74.6875C26.0156 73.8281 27.5 73.5156 28.9844 73.5156ZM23.3594 82.3438C23.3594 84.6094 24.4531 86.25 26.4063 87.4219C27.3438 87.9688 28.2813 88.2031 29.375 88.2031C31.6406 88.2031 33.2812 87.0313 34.4531 85.1563C35 84.2188 35.2344 83.2812 35.2344 82.1875C35.2344 80.0781 34.2188 78.4375 32.5 77.2656C31.5625 76.6406 30.4687 76.3281 29.375 76.3281C26.875 76.3281 25.0781 77.5781 23.9844 79.8437C23.5156 80.7031 23.3594 81.5625 23.3594 82.3438ZM50.5469 76.7187C50.0781 76.4844 49.2188 76.4063 48.75 76.4063C46.25 76.3281 44.4531 77.7344 43.3594 79.9219C42.9688 80.7031 42.8125 81.4844 42.8125 82.3438C42.8125 84.9219 44.1406 86.7188 46.4063 87.8125C47.2656 88.2031 48.2813 88.2813 49.2188 88.2813C50 88.2813 51.1719 87.8125 51.875 87.4219L52.0312 87.3438H52.6563C53.3594 87.5 53.8281 87.8906 53.8281 88.6719V88.9844C53.8281 90.7813 50.4688 91.25 49.2188 91.3281C44.7656 91.6406 41.4063 89.2187 40.1563 84.9219C39.9219 84.2187 39.8438 83.4375 39.8438 82.6563V82.0313C39.8438 78.8281 41.4844 76.25 44.2188 74.6094C45.5469 73.8281 46.9531 73.4375 48.4375 73.4375H49.0625C50.625 73.4375 52.1094 73.9062 53.4375 74.7656L53.5156 74.8438L53.5938 74.9219C53.75 75.1563 53.8281 75.3906 53.8281 75.7031V76.0156C53.8281 76.7969 53.2813 77.1875 52.5781 77.3438H52.3438C51.9531 77.3438 50.9375 76.875 50.5469 76.7187ZM60.2344 78.75C61.4062 77.5781 62.5781 76.4063 63.75 75.3125C64.0625 75 65.3125 73.6719 65.7812 73.6719H66.4063C67.1094 73.8281 67.5781 74.2188 67.5781 75V75.3125C67.5781 75.7813 67.0313 76.4062 66.6406 76.7187L64.5312 78.8281L60.9375 82.5C62.5 84.0625 64.0625 85.625 65.5469 87.1875L66.7969 88.5156C66.9531 88.6719 67.1875 88.8281 67.2656 89.0625C67.4219 89.2969 67.5 89.5313 67.5 89.7656V90.1563C67.3438 90.8594 66.875 91.4063 66.1719 91.4063H65.9375C65.4688 91.4063 64.9219 90.8594 64.5312 90.5469C63.8281 89.9219 63.125 89.2188 62.5 88.5156L60.2344 86.25V89.8438C60.2344 90.7031 59.6875 91.3281 58.8281 91.3281H58.5938C57.7344 91.3281 57.1875 90.625 57.1875 89.8438V69.4531C57.1875 68.5938 57.7344 67.9688 58.5938 67.9688H58.8281C59.6875 67.9688 60.2344 68.5938 60.2344 69.4531V78.75ZM97.4219 73.5937H97.7344C98.5938 73.5937 99.2188 74.2187 99.2188 75.0781C99.2188 76.3281 98.0469 76.6406 97.0312 76.6406C95.7031 76.6406 94.375 77.4219 93.5156 78.3594C92.3437 79.5313 91.875 80.9375 91.875 82.5781V89.7656C91.875 90.625 91.3281 91.25 90.4688 91.25H90.2344C89.375 91.25 88.8281 90.5469 88.8281 89.7656V82.1094C88.8281 79.1406 90.2344 76.7969 92.6562 75.0781C94.0625 74.1406 95.7031 73.5937 97.4219 73.5937ZM76.25 87.8906C77.3437 88.2813 78.5938 88.2031 79.6875 88.0469C80.2344 87.8125 81.7188 87.1875 82.2656 87.2656H82.4219C82.7344 87.4219 83.0469 87.6562 83.2031 87.9688C83.5938 88.75 83.4375 89.5312 82.6563 90L82.4219 90.1563C79.6094 91.7969 76.5625 91.5625 73.75 90C72.4219 89.2969 71.4063 88.2031 70.625 86.875L70.4687 86.5625C68.6719 83.4375 68.9063 80.0781 70.9375 77.1094C71.6406 76.0937 72.5781 75.3125 73.6719 74.6875L74.0625 74.4531C76.7188 72.8906 79.6094 73.0469 82.3438 74.375C83.8281 75.0781 85 76.1719 85.8594 77.5781L86.0156 77.8125C86.6406 78.8281 85.8594 79.7656 85.0781 80.3906C84.1406 81.0938 83.2031 81.9531 82.3438 82.7344C80.2344 84.4531 78.2031 86.1719 76.25 87.8906ZM73.6719 86.0937L80.3125 80.3906C81.0938 79.7656 81.875 79.0625 82.6563 78.3594C82.0313 77.5781 81.0156 77.0312 80.2344 76.7187C78.5156 76.0937 76.7969 76.25 75.2344 77.1875C73.2031 78.3594 72.2656 80.3125 72.3438 82.6563C72.3438 83.5938 72.6562 84.4531 73.125 85.3125C73.2813 85.625 73.4375 85.8594 73.6719 86.0937ZM57.5781 26.3281H66.4063V35.3125H70.8594C72.8906 35.3125 75 34.9219 76.9531 34.2969C77.8906 33.9844 78.9844 33.5156 79.9219 32.9688C78.6719 31.3281 78.0469 29.2969 77.8906 27.2656C77.6562 24.5313 78.2031 20.9375 80.0781 18.8281L81.0156 17.7344L82.1094 18.5937C84.9219 20.8594 87.1875 23.9063 87.6562 27.5C91.0156 26.4844 94.9219 26.7188 97.8906 28.4375L99.0625 29.1406L98.4375 30.3906C95.9375 35.2344 90.7031 36.7969 85.625 36.4844C77.9687 55.4687 61.4062 64.4531 41.25 64.4531C30.8594 64.4531 21.3281 60.5469 15.8594 51.3281L15.7813 51.1719L15 49.5313C13.125 45.4688 12.5781 41.0156 12.9688 36.5625L13.125 35.2344H20.625V26.3281H29.4531V17.5H47.0313V8.67188H57.5781V26.3281Z" fill="#3A4D54"/>
<path d="M86.0938 29.6094C86.7188 25 83.2813 21.4063 81.0938 19.6875C78.6719 22.5 78.2813 30 82.1094 33.125C79.9219 35 75.4688 36.7969 70.7813 36.7969H14.375C13.9063 41.6406 14.7657 46.0938 16.7188 49.9219L17.3438 51.0938C17.7344 51.7969 18.2032 52.4219 18.6719 53.125C21.0157 53.2813 23.125 53.3594 25.0782 53.2812C28.9063 53.2031 32.0313 52.7344 34.4532 51.9531C34.8438 51.7969 35.1563 52.0313 35.3125 52.3438C35.4688 52.7344 35.2344 53.0469 34.9219 53.2031C34.6094 53.2813 34.2969 53.4375 33.9063 53.5156C32.0313 54.0625 30 54.375 27.4219 54.5313H26.9532C25.9375 54.6094 24.8438 54.6094 23.6719 54.6094C22.4219 54.6094 21.25 54.6094 19.8438 54.5313C24.5313 59.8438 31.875 62.9688 41.0938 62.9688C60.625 62.9688 77.1875 54.2969 84.4532 34.9219C89.6875 35.4688 94.6875 34.1406 96.9532 29.6875C93.4375 27.6563 88.75 28.2813 86.0938 29.6094Z" fill="#00AADA"/>
<path d="M86.0938 29.6094C86.7188 25 83.2813 21.4063 81.0938 19.6875C78.6719 22.5 78.2813 30 82.1094 33.125C79.9219 35 75.4688 36.7969 70.7813 36.7969H17.6563C17.4219 44.2187 20.1563 49.8437 25.0781 53.2031C28.9063 53.125 32.0313 52.6563 34.4531 51.875C34.8438 51.7188 35.1563 51.9531 35.3125 52.2656C35.4688 52.6563 35.2344 52.9687 34.9219 53.125C34.6094 53.2031 34.2969 53.3594 33.9063 53.4375C32.0313 53.9844 29.8438 54.375 27.2656 54.5313L27.1875 54.4531C33.8281 57.8906 43.4375 57.8125 54.5313 53.5937C66.875 48.8281 78.4375 39.7656 86.4844 29.4531C86.3281 29.5313 86.25 29.6094 86.0938 29.6094Z" fill="#28B8EB"/>
<path d="M14.4531 42.6562C14.7656 45.2344 15.5469 47.6563 16.7187 49.9219L17.3438 51.0938C17.7344 51.7969 18.2031 52.4219 18.6719 53.125C21.0156 53.2813 23.125 53.3594 25.0781 53.2812C28.9062 53.2031 32.0312 52.7344 34.4531 51.9531C34.8437 51.7969 35.1563 52.0313 35.3125 52.3438C35.4688 52.7344 35.2344 53.0469 34.9219 53.2031C34.6094 53.2813 34.2969 53.4375 33.9063 53.5156C32.0313 54.0625 29.8438 54.4531 27.2656 54.6094H26.9531C25.9375 54.6875 24.8437 54.6875 23.75 54.6875C22.5 54.6875 21.25 54.6875 19.9219 54.6094C24.6094 59.9219 32.0312 63.0469 41.25 63.0469C57.9687 63.0469 72.5 56.7188 80.9375 42.7344H14.4531V42.6562Z" fill="#028BB8"/>
<path d="M18.2031 42.6562C19.2187 47.1875 21.5625 50.7813 25.0781 53.2031C28.9062 53.125 32.0312 52.6563 34.4531 51.875C34.8437 51.7188 35.1563 51.9531 35.3125 52.2656C35.4688 52.6563 35.2344 52.9688 34.9219 53.125C34.6094 53.2031 34.2969 53.3594 33.9063 53.4375C32.0313 53.9844 29.8438 54.375 27.1875 54.5313C33.8281 57.9688 43.4375 57.8906 54.4531 53.6719C61.0937 51.0937 67.5781 47.2656 73.3594 42.6562H18.2031Z" fill="#019BC6"/>
<path fill-rule="evenodd" clip-rule="evenodd" d="M22.0312 27.7344H29.6875V35.3906H22.0312V27.7344ZM22.6562 28.4375H23.2812V34.7656H22.6562V28.4375ZM23.8281 28.4375H24.4531V34.7656H23.8281V28.4375ZM25 28.4375H25.625V34.7656H25V28.4375ZM26.0938 28.4375H26.7187V34.7656H26.0938V28.4375ZM27.2656 28.4375H27.8906V34.7656H27.2656V28.4375ZM28.4375 28.4375H29.0625V34.7656H28.4375V28.4375ZM30.8594 18.9844H38.5156V26.5625H30.8594V18.9844ZM31.4844 19.6094H32.1094V25.9375H31.4844V19.6094ZM32.6562 19.6094H33.2812V25.9375H32.6562V19.6094ZM33.75 19.6094H34.375V25.9375H33.75V19.6094ZM34.9219 19.6094H35.5469V25.9375H34.9219V19.6094ZM36.0937 19.6094H36.7187V25.9375H36.0937V19.6094ZM37.2656 19.6094H37.8906V25.9375H37.2656V19.6094Z" fill="#00ACD3"/>
<path fill-rule="evenodd" clip-rule="evenodd" d="M30.8594 27.7344H38.5156V35.3906H30.8594V27.7344ZM31.4844 28.4375H32.1094V34.7656H31.4844V28.4375ZM32.6562 28.4375H33.2812V34.7656H32.6562V28.4375ZM33.75 28.4375H34.375V34.7656H33.75V28.4375ZM34.9219 28.4375H35.5469V34.7656H34.9219V28.4375ZM36.0938 28.4375H36.7188V34.7656H36.0938V28.4375ZM37.2656 28.4375H37.8906V34.7656H37.2656V28.4375Z" fill="#23C2EE"/>
<path fill-rule="evenodd" clip-rule="evenodd" d="M39.6875 27.7344H47.3437V35.3906H39.6875V27.7344ZM40.3125 28.4375H40.9375V34.7656H40.3125V28.4375ZM41.4063 28.4375H42.0312V34.7656H41.4063V28.4375ZM42.5781 28.4375H43.2031V34.7656H42.5781V28.4375ZM43.75 28.4375H44.375V34.7656H43.75V28.4375ZM44.9219 28.4375H45.5469V34.7656H44.9219V28.4375ZM46.0156 28.4375H46.6406V34.7656H46.0156V28.4375Z" fill="#00ACD3"/>
<path fill-rule="evenodd" clip-rule="evenodd" d="M39.6875 18.9844H47.3437V26.5625H39.6875V18.9844ZM40.3125 19.6094H40.9375V25.9375H40.3125V19.6094ZM41.4063 19.6094H42.0313V25.9375H41.4063V19.6094ZM42.5781 19.6094H43.2031V25.9375H42.5781V19.6094ZM43.75 19.6094H44.375V25.9375H43.75V19.6094ZM44.9219 19.6094H45.5469V25.9375H44.9219V19.6094ZM46.0156 19.6094H46.6406V25.9375H46.0156V19.6094ZM48.4375 27.7344H56.0938V35.3906H48.4375V27.7344ZM49.1406 28.4375H49.7656V34.7656H49.1406V28.4375ZM50.2344 28.4375H50.8594V34.7656H50.2344V28.4375ZM51.4063 28.4375H52.0313V34.7656H51.4063V28.4375ZM52.5781 28.4375H53.2031V34.7656H52.5781V28.4375ZM53.6719 28.4375H54.2969V34.7656H53.6719V28.4375ZM54.8437 28.4375H55.4688V34.7656H54.8437V28.4375Z" fill="#23C2EE"/>
<path fill-rule="evenodd" clip-rule="evenodd" d="M48.4375 18.9844H56.0938V26.5625H48.4375V18.9844ZM49.1406 19.6094H49.7656V25.9375H49.1406V19.6094ZM50.2344 19.6094H50.8594V25.9375H50.2344V19.6094ZM51.4063 19.6094H52.0312V25.9375H51.4063V19.6094ZM52.5781 19.6094H53.2031V25.9375H52.5781V19.6094ZM53.6719 19.6094H54.2969V25.9375H53.6719V19.6094ZM54.8437 19.6094H55.4688V25.9375H54.8437V19.6094Z" fill="#00ACD3"/>
<path fill-rule="evenodd" clip-rule="evenodd" d="M48.4375 10.1562H56.0938V17.8125H48.4375V10.1562ZM49.1406 10.7813H49.7656V17.1875H49.1406V10.7813ZM50.2344 10.7813H50.8594V17.1875H50.2344V10.7813ZM51.4063 10.7813H52.0312V17.1875H51.4063V10.7813ZM52.5781 10.7813H53.2031V17.1875H52.5781V10.7813ZM53.6719 10.7813H54.2969V17.1875H53.6719V10.7813ZM54.8437 10.7813H55.4688V17.1875H54.8437V10.7813Z" fill="#23C2EE"/>
<path fill-rule="evenodd" clip-rule="evenodd" d="M57.2656 27.7344H64.9219V35.3906H57.2656V27.7344ZM57.8906 28.4375H58.5156V34.7656H57.8906V28.4375ZM59.0625 28.4375H59.6875V34.7656H59.0625V28.4375ZM60.2344 28.4375H60.8594V34.7656H60.2344V28.4375ZM61.3281 28.4375H61.9531V34.7656H61.3281V28.4375ZM62.5 28.4375H63.125V34.7656H62.5V28.4375ZM63.6719 28.4375H64.2969V34.7656H63.6719V28.4375Z" fill="#00ACD3"/>
<path fill-rule="evenodd" clip-rule="evenodd" d="M37.9687 47.8125C39.1406 47.8125 40.0781 48.75 40.0781 49.9219C40.0781 51.0938 39.1406 52.0312 37.9687 52.0312C36.7969 52.0312 35.8594 51.0938 35.8594 49.9219C35.9375 48.75 36.875 47.8125 37.9687 47.8125Z" fill="#D4EEF1"/>
<path fill-rule="evenodd" clip-rule="evenodd" d="M37.9687 48.3594C38.125 48.3594 38.3594 48.3594 38.5156 48.4375C38.3594 48.5156 38.2031 48.75 38.2031 48.9844C38.2031 49.2969 38.5156 49.6094 38.8281 49.6094C39.0625 49.6094 39.2969 49.4531 39.375 49.2969C39.4531 49.4531 39.4531 49.6875 39.4531 49.8437C39.4531 50.7031 38.75 51.3281 37.9687 51.3281C37.1094 51.3281 36.4844 50.625 36.4844 49.8437C36.4844 49.0625 37.1875 48.3594 37.9687 48.3594ZM0.78125 43.4375H98.6719C96.5625 42.8906 91.9531 42.1875 92.6562 39.375C88.75 43.8281 79.4531 42.5 77.0312 40.3125C74.375 44.1406 59.0625 42.6562 58.0469 39.6875C54.7656 43.5937 44.5312 43.5937 41.25 39.6875C40.1562 42.6562 24.8437 44.1406 22.2656 40.3125C19.9219 42.5 10.5469 43.8281 6.64062 39.375C7.5 42.1094 2.89063 42.8906 0.78125 43.4375Z" fill="#3A4D54"/>
<path d="M43.5937 62.9687C38.3594 60.4687 35.5469 57.1094 33.9063 53.4375C31.9531 53.9844 29.6094 54.375 26.9531 54.5313C25.9375 54.6094 24.8437 54.6094 23.75 54.6094C22.4219 54.6094 21.0937 54.6094 19.6875 54.5313C24.4531 59.2969 30.3906 62.9687 41.25 63.0469C42.0312 62.9687 42.8125 62.9687 43.5937 62.9687Z" fill="#BFDBE0"/>
<path d="M35.8594 56.7969C35.1563 55.7812 34.4531 54.6094 33.9063 53.4375C31.9531 53.9844 29.6094 54.375 26.9531 54.5313C28.8281 55.5469 31.4844 56.4844 35.8594 56.7969Z" fill="#D4EEF1"/>
</svg>
