<svg width="100" height="100" viewBox="0 0 100 100" fill="none" xmlns="http://www.w3.org/2000/svg">
<path d="M36.1111 91.6667C43.7778 91.6667 50 85.4444 50 77.7778V63.8889H36.1111C28.4444 63.8889 22.2222 70.1111 22.2222 77.7778C22.2222 85.4444 28.4444 91.6667 36.1111 91.6667Z" fill="#0ACF83"/>
<path d="M22.2222 50C22.2222 42.3333 28.4444 36.1111 36.1111 36.1111H50V63.8889H36.1111C28.4444 63.8889 22.2222 57.6667 22.2222 50Z" fill="#A259FF"/>
<path d="M22.2222 22.2222C22.2222 14.5556 28.4444 8.33334 36.1111 8.33334H50V36.1111H36.1111C28.4444 36.1111 22.2222 29.8889 22.2222 22.2222Z" fill="#F24E1E"/>
<path d="M50 8.33334H63.8889C71.5556 8.33334 77.7778 14.5556 77.7778 22.2222C77.7778 29.8889 71.5556 36.1111 63.8889 36.1111H50V8.33334Z" fill="#FF7262"/>
<path d="M77.7778 50C77.7778 57.6667 71.5556 63.8889 63.8889 63.8889C56.2222 63.8889 50 57.6667 50 50C50 42.3333 56.2222 36.1111 63.8889 36.1111C71.5556 36.1111 77.7778 42.3333 77.7778 50Z" fill="#1ABCFE"/>
</svg>
