<svg width="100" height="100" viewBox="0 0 100 100" fill="none" xmlns="http://www.w3.org/2000/svg">
<path d="M16.3916 65.3012L26.2457 1.92258C26.3164 1.45245 26.5337 1.01662 26.8665 0.677175C27.1994 0.337729 27.6309 0.111986 28.0995 0.0321074C28.5682 -0.0477715 29.0501 0.0222883 29.4766 0.232306C29.9031 0.442323 30.2524 0.781584 30.4749 1.20176L41.0706 21.0808L16.3916 65.3012ZM86.3661 80.6844L76.9912 22.3516C76.9269 21.9393 76.7492 21.5531 76.4781 21.236C76.207 20.9189 75.853 20.6834 75.4557 20.5559C75.0585 20.4284 74.6336 20.4138 74.2285 20.5139C73.8235 20.6139 73.4542 20.8246 73.162 21.1224L14 80.6886L46.7331 99.1343C47.7433 99.7019 48.8826 100 50.0414 100C51.2001 100 52.3394 99.7019 53.3497 99.1343L86.3661 80.6844ZM59.7663 29.7807L52.183 15.2725C51.9917 14.9076 51.7042 14.6021 51.3517 14.3889C50.9991 14.1757 50.595 14.063 50.183 14.063C49.7711 14.063 49.3669 14.1757 49.0144 14.3889C48.6619 14.6021 48.3744 14.9076 48.1831 15.2725L14.8917 74.9345L59.7663 29.7807Z" fill="#FFCA28"/>
</svg>
