<svg width="100" height="100" viewBox="0 0 100 100" fill="none" xmlns="http://www.w3.org/2000/svg">
<g clip-path="url(#clip0_1_35)">
<path d="M98.1083 45.5427L54.4458 1.88438C51.9292 -0.628125 47.8542 -0.628125 45.3292 1.88438L36.2833 10.9469L47.7833 22.4469C50.4708 21.551 53.5292 22.1552 55.6542 24.2844C57.8042 26.4302 58.3958 29.526 57.4792 32.201L68.5542 43.2844C71.2417 42.3552 74.3333 42.9594 76.4708 45.0969C79.475 48.0969 79.475 52.9469 76.4708 55.9469C73.475 58.9427 68.6333 58.9427 65.6375 55.9469C63.3917 53.6927 62.8292 50.376 63.9542 47.6302L53.5833 37.3135V64.501C54.3167 64.8594 55.0083 65.3469 55.6167 65.951C58.5875 68.9552 58.5875 73.7969 55.6167 76.7844C52.6208 79.7885 47.7458 79.7885 44.7458 76.7844C41.75 73.7885 41.75 68.9552 44.7458 65.9594C45.5042 65.2094 46.3583 64.6427 47.2667 64.2677V36.8135C46.3625 36.4344 45.5 35.8885 44.7667 35.1427C42.4958 32.8719 41.95 29.551 43.1167 26.7719L31.8167 15.4177L1.875 45.3385C-0.625 47.8594 -0.625 51.9385 1.875 54.4594L45.5417 98.1136C48.0583 100.63 52.1333 100.63 54.65 98.1136L98.1083 54.6552C100.629 52.1427 100.629 48.0635 98.1083 45.5427" fill="#F05032"/>
</g>
<defs>
<clipPath id="clip0_1_35">
<rect width="100" height="100" fill="white"/>
</clipPath>
</defs>
</svg>
