<svg width="100" height="100" viewBox="0 0 100 100" fill="none" xmlns="http://www.w3.org/2000/svg">
<path d="M49.2708 51.8708C47.1916 48.5188 45.6833 45.7396 43.5937 40.5063C40.0604 31.6667 65.0833 23.6792 54.9375 8.33125C59.3354 18.9333 39.152 25.4875 37.277 34.3167C35.5625 42.4375 49.2604 51.8708 49.2708 51.8708Z" fill="#F44336"/>
<path d="M49.7459 35.9792C49.3459 41.2208 54.3896 44.0146 54.5354 47.8438C54.6521 50.9604 51.5209 53.5583 51.5209 53.5583C51.5209 53.5583 57.2042 52.4417 58.9771 47.6875C60.9459 42.4083 55.1563 38.7938 55.7521 34.5667C56.3084 30.5292 68.3167 23.0188 68.3167 23.0188C68.3167 23.0188 50.6479 24.1896 49.7459 35.9792Z" fill="#F44336"/>
<path d="M66.8417 52.1979C70.4958 51.3771 73.5771 53.7042 73.5771 56.3854C73.5771 62.4292 65.2 68.1417 65.2 68.1417C65.2 68.1417 78.1688 66.5958 78.1688 56.6729C78.1688 50.1104 71.8 48.4708 66.8417 52.1979ZM60.6854 57.0729C60.6854 57.0729 64.7292 54.1917 65.8063 53.1104C55.8833 55.2167 33.2271 55.5 33.2271 53.6708C33.2271 51.9854 40.5333 50.2583 40.5333 50.2583C40.5333 50.2583 24.3396 50.025 24.3396 54.8021C24.3396 59.7812 45.5375 60.1375 60.6854 57.0729Z" fill="#1565C0"/>
<path d="M58.1979 61.6062C48.8042 64.7292 31.5021 63.7312 36.6271 59.5375C34.1313 59.5375 30.4313 61.5437 30.4313 63.4729C30.4313 67.3417 49.1438 70.3292 62.9938 64.6646L58.1979 61.6062Z" fill="#1565C0"/>
<path d="M38.9292 68.2062C35.5208 68.2062 33.3146 70.4021 33.3146 72.0021C33.3146 76.9833 53.6479 77.4854 61.7042 72.4292L56.5833 69.0292C50.5646 71.675 35.4458 72.0396 38.9292 68.2062Z" fill="#1565C0"/>
<path d="M75.5854 76.3167C75.5854 74.3667 73.3875 73.4479 72.6 73.0083C77.2417 84.2021 26.1063 83.3333 26.1063 76.725C26.1063 75.2229 29.8708 73.7521 33.35 74.4479L30.3917 72.7C23.4583 71.6125 18.75 74.6604 18.75 77.1187C18.75 88.5833 75.5854 88.0312 75.5854 76.3167Z" fill="#1565C0"/>
<path d="M81.25 80.425C72.6125 88.9562 50.7104 92.0646 28.6854 86.7937C50.7104 96.175 81.1458 90.8917 81.25 80.425Z" fill="#1565C0"/>
</svg>
