<svg width="100" height="100" viewBox="0 0 100 100" fill="none" xmlns="http://www.w3.org/2000/svg">
<g clip-path="url(#clip0_1_77)">
<path d="M10.4722 41.3237C10.2783 41.3237 10.2137 41.2591 10.0844 41.1944C10.0197 41.0651 10.0197 40.9359 10.0197 40.7419C10.0197 40.548 10.0197 40.3541 10.0844 40.2895C10.2137 40.1602 10.2783 40.0955 10.4722 40.0955C10.6015 40.0955 10.7308 40.1602 10.7954 40.2895C10.8601 40.3541 10.9247 40.548 10.9247 40.7419C10.9247 40.9359 10.8601 41.0651 10.7954 41.1944C10.7308 41.2591 10.6015 41.3237 10.4722 41.3237ZM17.3888 33.9547C17.3241 33.9547 17.1949 33.9547 17.1302 33.89C17.0009 33.8254 16.9363 33.6315 16.9363 33.4375C16.9363 33.3083 17.0009 33.179 17.0009 33.0497C17.0656 32.9204 17.1949 32.7911 17.3888 32.7911C17.5827 32.7911 17.6473 32.8558 17.712 32.9851C17.7766 33.1143 17.8413 33.2436 17.8413 33.3729C17.8413 33.5668 17.7766 33.6961 17.712 33.8254C17.6473 33.9547 17.5181 33.9547 17.3888 33.9547ZM15.1264 41.3884C15.0617 41.3884 14.9971 41.3884 14.9324 41.3237C14.9324 41.3237 14.8678 41.2591 14.8678 41.1298C14.8678 41.0651 14.9324 41.0005 14.9971 40.9359C15.0617 40.8712 15.1264 40.8712 15.2556 40.8712L15.3849 40.8066H15.5142L15.5788 40.7419V40.9359C15.5788 41.1298 15.5142 41.2591 15.4496 41.3237C15.3849 41.3884 15.2556 41.3884 15.1264 41.3884ZM4.7192 40.6773H4.00815L4.33136 39.6431L4.7192 40.6773ZM15.3203 33.5022H15.3849C15.4496 33.5022 15.5142 33.4375 15.5788 33.4375H15.6435V33.5668C15.6435 33.7607 15.5788 33.89 15.5142 33.9547C15.3849 34.0193 15.3203 34.0193 15.191 34.0193H14.9971C14.9971 33.9547 14.9324 33.89 14.9324 33.8254C14.9324 33.6961 14.9971 33.6315 15.0617 33.5668C15.1264 33.5668 15.191 33.5022 15.3203 33.5022ZM17.5827 36.5403C17.5181 36.6049 17.4534 36.6049 17.3241 36.6049H16.807V35.8292H17.3241C17.4534 35.8292 17.5181 35.8939 17.5827 35.9585C17.712 35.9585 17.712 36.0878 17.712 36.2171C17.712 36.3464 17.712 36.4757 17.5827 36.5403ZM19.328 36.4757C19.4573 36.4757 19.5219 36.4757 19.6512 36.5403C19.7158 36.6049 19.7805 36.7342 19.7805 36.8635H18.8755C18.8755 36.7342 18.9402 36.6049 19.0048 36.5403C19.0694 36.4757 19.1987 36.4757 19.328 36.4757ZM19.328 40.0955C19.4573 40.0955 19.5866 40.1602 19.6512 40.2895C19.7158 40.3541 19.7805 40.548 19.7805 40.7419C19.7805 40.9359 19.7158 41.0651 19.6512 41.1944C19.5866 41.2591 19.4573 41.3237 19.328 41.3237C19.1341 41.3237 19.0048 41.2591 18.9402 41.1944C18.8755 41.0651 18.8109 40.9359 18.8109 40.7419C18.8109 40.548 18.8755 40.3541 18.9402 40.2895C19.0048 40.1602 19.1341 40.0955 19.328 40.0955ZM24.1761 31.2398H80.2842C91.2085 31.2398 99.9996 38.9966 99.9996 48.4988V69.5071H27.4727C16.6131 69.5071 7.75731 61.8148 7.75731 52.3126V45.9778C3.23246 44.2972 0.000427246 40.2895 0.000427246 35.5707C0.000427246 29.3005 5.62417 24.2586 12.5407 24.2586C17.8413 24.2586 22.3015 27.1674 24.1761 31.2398ZM21.0087 32.4033H20.5562V34.3425H21.0733V32.9851C21.1379 32.8558 21.2672 32.7911 21.4611 32.7911C21.5904 32.7911 21.6551 32.8558 21.7197 32.9204C21.7844 32.9851 21.7844 33.0497 21.7844 33.179V34.3425H22.3015V33.0497C22.3015 32.7911 22.2368 32.5972 22.1076 32.5326C21.9783 32.4033 21.7844 32.3387 21.5904 32.3387C21.4611 32.3387 21.3319 32.4033 21.2026 32.4679L21.0087 32.6619V32.4033ZM21.7197 40.2895C21.7844 40.3541 21.7844 40.4187 21.7844 40.4834V41.7116H22.3015V40.3541C22.3015 40.1602 22.2368 39.9663 22.1076 39.837C21.9783 39.7723 21.7844 39.7077 21.5904 39.7077C21.4611 39.7077 21.3319 39.7077 21.2026 39.837C21.1379 39.837 21.0733 39.9663 21.0087 40.0309V39.7723H20.5562V41.7116H21.0733V40.3541C21.1379 40.2248 21.2672 40.0955 21.4611 40.0955C21.5904 40.0955 21.6551 40.1602 21.7197 40.2895ZM21.7844 35.3768V38.027H22.3015V35.3768H21.7844ZM20.944 36.0878H20.4915V38.027H21.0087V37.1221C21.0087 36.9281 21.0087 36.7989 21.0733 36.7342C21.1379 36.6049 21.2672 36.5403 21.4611 36.5403H21.5904V36.0232H21.5258C21.3965 36.0232 21.2672 36.0878 21.1379 36.1525C21.1379 36.2171 21.0087 36.2817 20.944 36.411V36.0878ZM19.5866 32.7911C19.6512 32.8558 19.7158 32.9204 19.7158 32.9851C19.7158 33.0497 19.6512 33.1143 19.5866 33.1143C19.5219 33.1143 19.4573 33.179 19.3926 33.179H19.1987C19.0048 33.2436 18.8755 33.2436 18.7462 33.3083C18.5523 33.4375 18.4877 33.5668 18.4877 33.8254C18.4877 34.0193 18.5523 34.1486 18.6816 34.2779C18.7462 34.3425 18.9402 34.4072 19.0694 34.4072C19.2634 34.4072 19.3926 34.4072 19.4573 34.3425C19.5866 34.2779 19.6512 34.2132 19.7158 34.1486V34.2779C19.7158 34.2779 19.7158 34.3425 19.7805 34.3425H20.2976V34.2779C20.2976 34.2779 20.233 34.2779 20.233 34.2132V32.9851C20.233 32.7265 20.1037 32.5972 19.9744 32.4679C19.7805 32.4033 19.5866 32.3387 19.3926 32.3387C19.0694 32.3387 18.8109 32.4679 18.6816 32.5972C18.617 32.7265 18.5523 32.8558 18.5523 33.0497H19.0694C19.0694 32.9851 19.0694 32.9204 19.1341 32.8558C19.1341 32.7911 19.2634 32.7911 19.3926 32.7911H19.5866ZM19.0694 37.6392C18.9402 37.5099 18.8755 37.3806 18.8755 37.1867H20.2976V36.7989C20.233 36.6696 20.233 36.5403 20.1037 36.411C20.0391 36.2817 19.9098 36.1525 19.7805 36.0878C19.6512 36.0232 19.5219 36.0232 19.328 36.0232C19.0694 36.0232 18.8109 36.0878 18.617 36.2817C18.423 36.4757 18.3584 36.7342 18.3584 37.0574C18.3584 37.4453 18.4877 37.7038 18.6816 37.8331C18.8755 38.027 19.0694 38.0917 19.328 38.0917C19.6512 38.0917 19.9098 38.027 20.1037 37.8331L20.2976 37.4453H19.7805C19.7158 37.5099 19.7158 37.5745 19.6512 37.5745C19.5866 37.6392 19.4573 37.7038 19.3926 37.7038C19.2634 37.7038 19.1341 37.6392 19.0694 37.6392ZM20.2976 40.7419C20.2976 40.4187 20.233 40.2248 20.0391 39.9663C19.9098 39.7723 19.6512 39.7077 19.328 39.7077C18.9402 39.7077 18.6816 39.7723 18.5523 39.9663C18.3584 40.2248 18.2938 40.4187 18.2938 40.7419C18.2938 41.0005 18.3584 41.2591 18.5523 41.453C18.6816 41.6469 18.9402 41.7762 19.328 41.7762C19.6512 41.7762 19.9098 41.6469 20.0391 41.453C20.233 41.2591 20.2976 41.0005 20.2976 40.7419ZM16.9363 32.4033H16.4838V35.1182H17.0009V34.084C17.0009 34.2132 17.0656 34.2779 17.1302 34.2779C17.2595 34.3425 17.3888 34.4072 17.5181 34.4072C17.7766 34.4072 17.9705 34.3425 18.1645 34.1486C18.2938 33.9547 18.3584 33.6961 18.3584 33.3729C18.3584 33.0497 18.2938 32.7911 18.0998 32.5972C17.9705 32.4679 17.7766 32.3387 17.5181 32.3387C17.3888 32.3387 17.2595 32.4033 17.1302 32.4679L16.9363 32.6619V32.4033ZM17.3888 35.3768H16.2899V38.027H16.807V37.0574H17.3888C17.6473 37.0574 17.9059 36.9928 18.0352 36.8635C18.1645 36.7342 18.2938 36.5403 18.2938 36.2171C18.2938 35.9585 18.1645 35.7 18.0352 35.5707C17.9059 35.4414 17.6473 35.3768 17.3888 35.3768ZM17.5181 39.0613V39.5138H18.0352V39.0613H17.5181ZM18.0352 41.7116V39.7723H17.5181V41.7116H18.0352ZM17.0656 41.3237C17.0009 41.2591 17.0009 41.2591 17.0009 41.1298V40.1602H17.3241V39.7723H17.0009V39.1906H16.4838V39.7723H16.2252V40.1602H16.4838V41.3237C16.4838 41.453 16.5485 41.5176 16.6131 41.5823C16.6777 41.7116 16.807 41.7116 17.0656 41.7116H17.3241V41.3237H17.0656ZM15.5788 32.7911C15.6435 32.8558 15.6435 32.9204 15.6435 32.9851C15.6435 33.0497 15.6435 33.1143 15.5142 33.1143C15.5142 33.1143 15.4496 33.179 15.3203 33.179H15.191C14.9324 33.2436 14.8032 33.2436 14.7385 33.3083C14.5446 33.4375 14.4153 33.5668 14.4153 33.8254C14.4153 34.0193 14.4799 34.1486 14.6092 34.2779C14.7385 34.3425 14.8678 34.4072 15.0617 34.4072C15.191 34.4072 15.3203 34.4072 15.4496 34.3425L15.6435 34.1486C15.6435 34.1486 15.6435 34.2132 15.7081 34.2779V34.3425H16.2899V34.2779C16.2252 34.2779 16.2252 34.2779 16.2252 34.2132C16.1606 34.2132 16.1606 34.1486 16.1606 34.084V32.9851C16.1606 32.7265 16.096 32.5972 15.902 32.4679C15.7728 32.4033 15.5788 32.3387 15.3203 32.3387C14.9971 32.3387 14.8032 32.4679 14.6092 32.5972C14.5446 32.7265 14.4799 32.8558 14.4799 33.0497H14.9971C14.9971 32.9851 14.9971 32.9204 15.0617 32.8558C15.1264 32.7911 15.191 32.7911 15.3203 32.7911H15.5788ZM14.6739 40.6773C14.4799 40.7419 14.3507 40.9359 14.3507 41.1944C14.3507 41.3884 14.4153 41.5176 14.5446 41.5823C14.6739 41.7116 14.8032 41.7762 14.9971 41.7762C15.1264 41.7762 15.2556 41.7116 15.3849 41.6469C15.4496 41.5823 15.5142 41.5176 15.6435 41.453V41.7116H16.2252V41.6469L16.1606 41.5823C16.096 41.5176 16.096 41.5176 16.096 41.453V40.2895C16.096 40.0955 16.0313 39.9016 15.8374 39.837C15.7081 39.7723 15.5142 39.7077 15.2556 39.7077C14.9324 39.7077 14.7385 39.7723 14.6092 39.9663C14.4799 40.0955 14.4799 40.2248 14.4153 40.3541H14.9324C14.9324 40.2895 14.9971 40.2248 14.9971 40.2248C15.0617 40.1602 15.1264 40.0955 15.2556 40.0955C15.3849 40.0955 15.4496 40.0955 15.5142 40.1602C15.5788 40.1602 15.5788 40.2248 15.5788 40.3541C15.5788 40.4187 15.5788 40.4187 15.5142 40.4834H15.2556L15.1264 40.548C14.9324 40.548 14.7385 40.6127 14.6739 40.6773ZM13.0579 33.3729H12.4761V33.4375C12.4761 33.6961 12.5407 33.9547 12.67 34.1486C12.7993 34.3425 12.9932 34.4072 13.3811 34.4072C13.7043 34.4072 13.8982 34.2779 14.0275 34.084C14.1567 33.9547 14.1567 33.7607 14.1567 33.5668V31.6922H13.6396V33.5668C13.6396 33.6961 13.575 33.7607 13.575 33.8254C13.5103 33.9547 13.4457 33.9547 13.3164 33.9547C13.1871 33.9547 13.1225 33.9547 13.1225 33.8254C13.0579 33.7607 13.0579 33.6315 13.0579 33.4375V33.3729ZM13.6396 39.0613V39.5138H14.1567V39.0613H13.6396ZM14.1567 41.7116V39.7723H13.6396V41.7116H14.1567ZM11.8297 39.9663C11.7004 40.1602 11.5711 40.4187 11.5711 40.7419C11.5711 41.0651 11.7004 41.3237 11.8297 41.5176C11.959 41.6469 12.2175 41.7762 12.5407 41.7762C12.7993 41.7762 13.0579 41.6469 13.2518 41.453C13.3164 41.3237 13.3811 41.1298 13.3811 41.0005H12.8639C12.8639 41.0651 12.7993 41.1944 12.7993 41.2591C12.7346 41.3237 12.67 41.3237 12.5407 41.3237C12.3468 41.3237 12.2175 41.2591 12.1529 41.0651V40.4187C12.2175 40.2248 12.3468 40.1602 12.5407 40.1602C12.67 40.1602 12.7346 40.1602 12.7993 40.2248C12.8639 40.2895 12.8639 40.3541 12.8639 40.4187H13.3811C13.3811 40.1602 13.2518 39.9663 13.1225 39.837C12.9932 39.7723 12.7346 39.7077 12.5407 39.7077C12.2175 39.7077 12.0236 39.7723 11.8297 39.9663ZM9.69654 39.9663C9.56725 40.2248 9.43797 40.4187 9.43797 40.7419C9.43797 41.0005 9.56725 41.2591 9.69654 41.453C9.89046 41.6469 10.149 41.7762 10.4722 41.7762C10.7954 41.7762 11.054 41.6469 11.1833 41.453C11.3772 41.2591 11.4418 41.0005 11.4418 40.7419C11.4418 40.4187 11.3772 40.2248 11.1833 39.9663C11.054 39.7723 10.7954 39.7077 10.4722 39.7077C10.149 39.7077 9.89046 39.7723 9.69654 39.9663ZM4.84848 41.1298L4.97776 41.7116H5.62417L4.65456 39.0613H4.07279L3.10318 41.7116H3.68495L3.87887 41.1298H4.84848ZM7.24019 41.5823C7.36947 41.453 7.43411 41.3237 7.43411 41.1298C7.43411 40.9359 7.36947 40.8712 7.30483 40.7419C7.17555 40.6773 7.04627 40.548 6.85234 40.548C6.52914 40.4834 6.33522 40.4187 6.27058 40.3541C6.20594 40.3541 6.20594 40.2895 6.20594 40.2248C6.20594 40.2248 6.20594 40.1602 6.27058 40.1602C6.33522 40.0955 6.39986 40.0955 6.52914 40.0955C6.65842 40.0955 6.72306 40.0955 6.7877 40.1602C6.85234 40.2248 6.85234 40.2895 6.85234 40.3541H7.36947C7.36947 40.0955 7.24019 39.9663 7.11091 39.837C6.98163 39.7077 6.7877 39.7077 6.52914 39.7077C6.27058 39.7077 6.07666 39.7723 5.88273 39.9016C5.75345 40.0309 5.68881 40.1602 5.68881 40.3541C5.68881 40.4834 5.75345 40.6127 5.81809 40.6773C5.94737 40.8066 6.07666 40.8712 6.33522 40.9359C6.59378 41.0005 6.7877 41.0651 6.85234 41.0651C6.91698 41.0651 6.91698 41.1298 6.91698 41.1944C6.91698 41.2591 6.85234 41.3237 6.85234 41.3237C6.7877 41.3884 6.65842 41.3884 6.59378 41.3884C6.39986 41.3884 6.27058 41.3237 6.20594 41.2591C6.20594 41.2591 6.1413 41.1944 6.1413 41.0651H5.62417C5.62417 41.2591 5.68881 41.453 5.88273 41.5823C6.01201 41.7116 6.20594 41.7762 6.52914 41.7762C6.85234 41.7762 7.04627 41.7116 7.24019 41.5823ZM9.11477 41.5823C9.24405 41.453 9.37333 41.3237 9.37333 41.1298C9.37333 40.9359 9.30869 40.8712 9.17941 40.7419C9.11477 40.6773 8.92085 40.548 8.72692 40.548C8.40372 40.4834 8.27444 40.4187 8.2098 40.3541C8.14516 40.3541 8.14516 40.2895 8.14516 40.2248C8.14516 40.2248 8.14516 40.1602 8.2098 40.1602C8.27444 40.0955 8.33908 40.0955 8.40372 40.0955C8.59764 40.0955 8.66228 40.0955 8.72692 40.1602C8.72692 40.2248 8.79157 40.2895 8.79157 40.3541H9.30869C9.24405 40.0955 9.17941 39.9663 9.05013 39.837C8.85621 39.7077 8.66228 39.7077 8.40372 39.7077C8.14516 39.7077 7.95124 39.7723 7.82195 39.9016C7.69267 40.0309 7.62803 40.1602 7.62803 40.3541C7.62803 40.4834 7.69267 40.6127 7.75731 40.6773C7.82195 40.8066 8.01588 40.8712 8.2098 40.9359C8.533 41.0005 8.72692 41.0651 8.72692 41.0651C8.79157 41.0651 8.85621 41.1298 8.85621 41.1944C8.85621 41.2591 8.79157 41.3237 8.72692 41.3237C8.66228 41.3884 8.59764 41.3884 8.46836 41.3884C8.33908 41.3884 8.2098 41.3237 8.14516 41.2591C8.08052 41.2591 8.08052 41.1944 8.08052 41.0651H7.56339C7.56339 41.2591 7.62803 41.453 7.75731 41.5823C7.95124 41.7116 8.14516 41.7762 8.46836 41.7762C8.79157 41.7762 8.98549 41.7116 9.11477 41.5823ZM27.4727 67.891H98.3836V48.4988C98.3836 39.837 90.3035 32.8558 80.2842 32.8558H24.7578C25.0164 33.6961 25.1457 34.6011 25.1457 35.5707C25.1457 41.7762 19.5219 46.8828 12.5407 46.8828C11.4418 46.8828 10.4076 46.7535 9.37333 46.495V52.3126C9.37333 60.9099 17.5181 67.891 27.4727 67.891ZM19.328 33.5022H19.4573C19.5219 33.5022 19.5866 33.4375 19.5866 33.4375H19.7158V33.5668C19.7158 33.7607 19.6512 33.89 19.5219 33.9547C19.4573 34.0193 19.328 34.0193 19.2634 34.0193H19.0694C19.0048 33.9547 19.0048 33.89 19.0048 33.8254C19.0048 33.6961 19.0048 33.6315 19.1341 33.5668C19.1341 33.5668 19.2634 33.5022 19.328 33.5022ZM74.5312 35.5707H78.9914C87.9765 35.5707 95.2162 41.5823 95.2162 48.9513V65.3701H91.0792V49.5977C91.0792 44.0386 85.1969 39.5138 78.0218 39.5138H74.5312V50.2441H86.9422V54.3811H74.5312V65.3701H70.3942V35.5707H74.5312ZM29.6705 61.427H33.2258V35.5707H37.3628V65.3701H28.7009C19.7805 65.3701 12.4761 59.3585 12.4761 51.9248V50.5027H16.807V51.6016C16.807 57.0314 22.56 61.427 29.6705 61.427ZM45.5075 35.5707H54.8158C58.5003 35.5707 61.7323 37.1867 63.9301 39.7077C65.5461 41.6469 66.5804 44.1033 66.5804 46.8182C66.5804 49.5331 65.5461 51.9894 63.9301 53.9287C61.7323 56.4496 58.5003 58.0657 54.8158 58.0657H49.6445V53.9287H55.3329C59.082 53.5408 61.9909 50.5027 61.9909 46.8182C61.9909 43.1337 59.082 40.0955 55.3329 39.7077H45.5075V65.3701H41.3705V35.5707H45.5075Z" fill="black"/>
</g>
<defs>
<clipPath id="clip0_1_77">
<rect width="100" height="45.5071" fill="white" transform="translate(0 24)"/>
</clipPath>
</defs>
</svg>
