<svg width="100" height="100" viewBox="0 0 100 100" fill="none" xmlns="http://www.w3.org/2000/svg">
<path d="M59.2917 50.0168C59.2917 52.487 58.3107 54.8561 56.5643 56.6032C54.818 58.3503 52.4494 59.3323 49.9792 59.3334C47.5082 59.3334 45.1385 58.3519 43.3913 56.6046C41.6441 54.8574 40.6625 52.4877 40.6625 50.0168C40.6625 47.5465 41.6435 45.1775 43.3898 43.4304C45.1361 41.6833 47.5048 40.7012 49.975 40.7001C52.4459 40.7001 54.8157 41.6817 56.5629 43.4289C58.3101 45.1761 59.2917 47.5458 59.2917 50.0168V50.0168ZM70.325 5.4751C64.7167 5.4751 57.3792 9.4751 49.9583 16.4001C42.5417 9.5126 35.2 5.55843 29.5958 5.55843C27.8875 5.55843 26.3333 5.94593 24.9875 6.71676C19.2583 10.0209 17.975 20.3168 20.9333 33.2376C8.25 37.1543 0 43.4168 0 50.0168C0 56.6418 8.29167 62.9209 21.0125 66.8084C18.0792 79.7793 19.3875 90.0918 25.1292 93.3918C26.4625 94.1709 28.0042 94.5376 29.7208 94.5376C35.325 94.5376 42.6667 90.5376 50.0875 83.6043C57.5042 90.4959 64.8458 94.4501 70.45 94.4501C72.1583 94.4501 73.7125 94.0751 75.0583 93.3043C80.7833 90.0043 82.0708 79.7084 79.1125 66.7834C91.75 62.9001 100 56.6251 100 50.0168C100 43.3918 91.7083 37.1126 78.9875 33.2168C81.9208 20.2584 80.6125 9.9376 74.8708 6.63343C73.5458 5.86676 72.0042 5.47926 70.3208 5.4751H70.325ZM70.3042 10.0168V10.0418C71.2417 10.0418 71.9958 10.2251 72.6292 10.5709C75.4042 12.1626 76.6083 18.2168 75.6708 26.0043C75.4458 27.9209 75.0792 29.9418 74.6292 32.0043C70.6292 31.0209 66.2708 30.2668 61.6833 29.7793C58.9333 26.0084 56.0792 22.5834 53.2042 19.5834C59.8375 13.4168 66.0667 10.0334 70.3083 10.0209L70.3042 10.0168ZM29.5958 10.1001C33.8125 10.1001 40.0708 13.4668 46.7208 19.6001C43.8625 22.6001 41.0125 26.0043 38.3042 29.7751C33.6917 30.2626 29.3292 31.0168 25.3333 32.0168C24.8667 29.9751 24.5208 28.0001 24.275 26.1001C23.3167 18.3168 24.5 12.2668 27.25 10.6543C28.0417 10.2793 28.9167 10.1251 29.5958 10.1043V10.1001ZM49.9375 22.8084C51.8333 24.7584 53.7292 26.9418 55.6042 29.3251C53.7708 29.2418 51.8958 29.1834 50 29.1834C48.0833 29.1834 46.1875 29.2251 44.3333 29.3251C46.1667 26.9418 48.0625 24.7584 49.9375 22.8043V22.8084ZM50 33.7501C53.0833 33.7501 56.1542 33.8918 59.175 34.1376C60.8667 36.5626 62.5167 39.1501 64.1042 41.8876C65.6542 44.5543 67.0625 47.2626 68.3458 49.9959C67.0625 52.7251 65.6542 55.4543 64.125 58.1209C62.5417 60.8709 60.9042 63.4876 59.2083 65.9126C56.175 66.1751 53.1 66.3209 50 66.3209C46.9167 66.3209 43.8458 66.1751 40.825 65.9334C39.1333 63.5084 37.4833 60.9168 35.8958 58.1834C34.3458 55.5168 32.9375 52.8084 31.6542 50.0751C32.9167 47.3376 34.3458 44.6043 35.875 41.9334C37.4583 39.1834 39.0958 36.5751 40.7917 34.1501C43.825 33.8834 46.9 33.7418 50 33.7418V33.7501ZM34.8542 34.8084C33.8542 36.3793 32.8542 37.9876 31.9208 39.6418C30.9833 41.2668 30.1083 42.9001 29.275 44.5334C28.1708 41.8001 27.2333 39.0751 26.4583 36.4209C29.125 35.7959 31.9375 35.2418 34.8542 34.8126V34.8084ZM65.1042 34.8084C68 35.2376 70.7917 35.7668 73.4625 36.4209C72.7125 39.0543 71.775 41.7626 70.7125 44.4751C69.8792 42.8501 69.0042 41.2126 68.0458 39.5834C67.1083 37.9501 66.1083 36.3584 65.1083 34.8084H65.1042ZM77.8667 37.6209C79.8833 38.2459 81.8 38.9418 83.5958 39.6959C90.8125 42.7793 95.4792 46.8126 95.4792 50.0126C95.4583 53.2126 90.7917 57.2626 83.575 60.3251C81.825 61.0751 79.9083 61.7501 77.9292 62.3793C76.7625 58.3876 75.2375 54.2293 73.3458 49.9626C75.2208 45.7251 76.7208 41.5876 77.8667 37.6126V37.6209ZM22.0542 37.6376C23.2125 41.6376 24.7417 45.7918 26.6375 50.0543C24.7625 54.2918 23.2542 58.4293 22.1125 62.4043C20.0958 61.7793 18.1792 61.0793 16.4042 60.3209C9.1875 57.2501 4.52083 53.2126 4.52083 50.0126C4.52083 46.8126 9.1875 42.7543 16.4042 39.6959C18.1542 38.9459 20.0708 38.2709 22.0542 37.6376V37.6376ZM70.7125 55.4709C71.8167 58.2084 72.7542 60.9376 73.5292 63.5876C70.8625 64.2418 68.0458 64.7959 65.1292 65.2126C66.1292 63.6501 67.1292 62.0376 68.0667 60.3876C69.0042 58.7626 69.8792 57.1043 70.7167 55.4709H70.7125ZM29.275 55.5543C30.1083 57.1876 30.9833 58.8168 31.9417 60.4501C32.9 62.0751 33.8792 63.6668 34.8792 65.2126C31.9833 64.7876 29.1917 64.2543 26.5208 63.6043C27.2708 60.9793 28.2125 58.2626 29.2708 55.5501L29.275 55.5543ZM74.6667 68.0001C75.1333 70.0543 75.5 72.0334 75.725 73.9293C76.6833 81.7126 75.5 87.7626 72.75 89.3793C72.1375 89.7543 71.3417 89.9126 70.4042 89.9126C66.1875 89.9126 59.9292 86.5501 53.2792 80.4126C56.1375 77.4126 58.9875 74.0126 61.6958 70.2459C66.3083 69.7543 70.6708 68.9959 74.6667 67.9959V68.0001ZM25.375 68.0418C29.375 69.0168 33.7333 69.7709 38.3208 70.2584C41.0708 74.0293 43.925 77.4543 46.8 80.4501C40.1542 86.6293 33.9167 90.0126 29.675 90.0126C28.7583 89.9918 27.9833 89.8043 27.3708 89.4626C24.5958 87.8793 23.3917 81.8209 24.3292 74.0334C24.5542 72.1168 24.9208 70.1001 25.3708 68.0418H25.375ZM44.375 70.7084C46.2083 70.7918 48.0833 70.8501 49.9792 70.8501C51.8958 70.8501 53.7917 70.8084 55.6458 70.7084C53.8125 73.0918 51.9167 75.2709 50.0417 77.2293C48.1458 75.2709 46.25 73.0918 44.375 70.7084Z" fill="#61DAFB"/>
</svg>
