<svg width="100" height="100" viewBox="0 0 100 100" fill="none" xmlns="http://www.w3.org/2000/svg">
<g clip-path="url(#clip0_1_55)">
<path d="M96.6075 43.1387L79.2575 13.0887C76.8075 8.85124 72.245 6.21375 67.345 6.21375H32.645C27.745 6.21375 23.1825 8.85124 20.7325 13.0887L3.38248 43.1387C0.932483 47.3762 0.932483 52.6512 3.38248 56.8887L20.7325 86.9387C23.1825 91.1887 27.745 93.8137 32.645 93.8137H67.345C72.245 93.8137 76.8075 91.1887 79.2575 86.9387L96.6075 56.8887C99.0575 52.6512 99.0575 47.3762 96.6075 43.1387ZM68.595 67.2012C64.12 72.1637 57.9825 75.0887 51.3075 75.4387C50.8575 75.4637 50.42 75.4762 49.97 75.4762C43.7825 75.4762 37.895 73.2262 33.2575 69.0512C23.0075 59.8262 22.17 43.9762 31.4075 33.7137C32.12 32.9262 32.8825 32.1762 33.695 31.4887C35.2575 30.1387 37.62 30.3137 38.9825 31.8887C40.3325 33.4512 40.145 35.8262 38.57 37.1762C38.02 37.6512 37.4825 38.1762 36.9825 38.7387C30.52 45.9137 31.095 57.0137 38.2825 63.4762C41.7575 66.6137 46.2325 68.2012 50.92 67.9512C55.595 67.7012 59.895 65.6512 63.02 62.1762C69.4825 55.0012 68.895 43.9012 61.72 37.4387C60.1825 36.0512 60.0575 33.6762 61.445 32.1387C62.8325 30.6012 65.195 30.4762 66.745 31.8637C76.995 41.0887 77.82 56.9387 68.595 67.2012ZM46.245 48.7262V27.5262C46.245 25.4512 47.9325 23.7762 49.995 23.7762C52.07 23.7762 53.745 25.4512 53.745 27.5262V48.7262C53.745 50.7887 52.07 52.4762 49.995 52.4762C48.97 52.4762 48.02 52.0512 47.345 51.3762C46.67 50.7012 46.245 49.7512 46.245 48.7262ZM65.145 160.901L57.395 147.776C56.695 146.589 55.7075 145.614 54.5575 144.939L54.3575 144.589H53.9325C52.845 144.064 51.6325 143.776 50.395 143.776H34.6075C33.3575 143.776 32.1575 144.064 31.07 144.589H30.52L30.245 145.051C29.1825 145.726 28.27 146.651 27.6075 147.776L19.8575 160.901C19.145 162.114 18.77 163.451 18.7325 164.801L18.6075 165.026L18.7325 165.251C18.77 166.601 19.145 167.939 19.8575 169.151L27.6075 182.276C28.27 183.401 29.1825 184.326 30.2575 185.001L30.52 185.451H31.045C32.145 185.989 33.345 186.276 34.6075 186.276H50.395C51.645 186.276 52.8575 185.989 53.9575 185.451H54.3575L54.545 185.126C55.7075 184.439 56.695 183.476 57.395 182.276L65.145 169.151C65.895 167.876 66.27 166.451 66.27 165.026C66.27 163.601 65.895 162.176 65.145 160.901ZM37.095 171.364C40.42 174.364 45.57 174.089 48.5575 170.764C51.5575 167.439 51.2825 162.289 47.9575 159.301C47.1825 158.601 47.12 157.414 47.82 156.651C48.5075 155.876 49.695 155.814 50.47 156.514C55.3325 160.889 55.72 168.414 51.345 173.276C49.0075 175.876 45.77 177.201 42.52 177.201C39.6825 177.201 36.845 176.189 34.5825 174.151C29.72 169.776 29.32 162.251 33.7075 157.389C34.045 157.014 34.4075 156.651 34.7825 156.326C35.57 155.651 36.7575 155.751 37.4325 156.526C38.1075 157.314 38.02 158.501 37.2325 159.176C36.97 159.401 36.72 159.639 36.4825 159.901C33.495 163.226 33.77 168.376 37.095 171.364ZM40.645 163.151V154.401C40.645 153.364 41.495 152.526 42.52 152.526C43.5575 152.526 44.395 153.364 44.395 154.401V163.151C44.395 164.189 43.5575 165.026 42.52 165.026C41.495 165.026 40.645 164.189 40.645 163.151ZM58.9325 246.851C58.845 245.889 58.5575 244.951 58.0575 244.089L52.645 234.714C52.145 233.839 51.47 233.114 50.67 232.551L50.295 231.901H49.545C48.6575 231.489 47.695 231.276 46.695 231.276H35.87C34.87 231.276 33.9075 231.489 33.02 231.901H32.27L31.895 232.551C31.095 233.114 30.42 233.839 29.92 234.714L24.5075 244.089C24.0075 244.951 23.72 245.889 23.6325 246.851L23.2575 247.501L23.62 248.139C23.7075 249.114 23.995 250.089 24.5075 250.964L29.92 260.339C30.4325 261.226 31.1325 261.976 31.945 262.539L32.27 263.101H32.9075C33.82 263.539 34.8325 263.776 35.87 263.776H46.695C47.7325 263.776 48.745 263.539 49.6575 263.101H50.295L50.62 262.539C51.4325 261.976 52.1325 261.226 52.645 260.339L58.0575 250.964C58.57 250.089 58.8575 249.114 58.945 248.139L59.3075 247.501L58.9325 246.851ZM37.57 251.914C39.845 253.951 43.3575 253.776 45.395 251.501C47.445 249.226 47.2575 245.726 44.9825 243.676C44.4075 243.151 44.37 242.264 44.8825 241.689C45.4075 241.114 46.295 241.064 46.87 241.589C50.295 244.664 50.57 249.964 47.495 253.389C45.995 255.039 43.945 256.026 41.72 256.139C41.57 256.151 41.42 256.151 41.27 256.151C39.2075 256.151 37.2325 255.401 35.695 254.001C34.0325 252.514 33.0575 250.464 32.9325 248.239C32.82 246.001 33.5825 243.864 35.07 242.201C35.3075 241.939 35.5575 241.689 35.8325 241.464C36.42 240.951 37.3075 241.026 37.82 241.614C38.32 242.201 38.2575 243.089 37.67 243.589C37.4825 243.751 37.32 243.914 37.1575 244.089C36.17 245.189 35.67 246.601 35.745 248.089C35.82 249.564 36.47 250.926 37.57 251.914ZM39.87 247.339V240.176C39.87 239.401 40.5075 238.776 41.2825 238.776C42.0575 238.776 42.6825 239.401 42.6825 240.176V247.339C42.6825 248.114 42.0575 248.751 41.2825 248.751C40.5075 248.751 39.87 248.114 39.87 247.339ZM49.57 302.064C49.5075 301.451 49.3075 300.851 48.9825 300.301L46.42 295.939C46.095 295.401 45.67 294.939 45.1575 294.589L44.9325 294.214H44.5075C43.9325 293.926 43.295 293.776 42.645 293.776H37.37C36.72 293.776 36.0825 293.926 35.5075 294.214H35.1825L35.02 294.489C34.445 294.839 33.9575 295.339 33.6075 295.939L31.0325 300.301C30.67 300.914 30.47 301.576 30.4325 302.264L30.295 302.501L30.4325 302.739C30.4575 303.439 30.6575 304.126 31.0325 304.751L33.6075 309.114C33.97 309.726 34.47 310.239 35.07 310.601L35.1825 310.789H35.4075C36.0075 311.114 36.6825 311.276 37.37 311.276H42.645C43.345 311.276 44.02 311.101 44.62 310.789H44.9325L45.1075 310.501C45.6325 310.151 46.0825 309.676 46.42 309.114L48.9825 304.751C49.32 304.189 49.52 303.564 49.57 302.926L49.82 302.501L49.57 302.064ZM37.9825 304.889C38.5825 305.439 39.3325 305.714 40.1575 305.664C40.9575 305.626 41.7075 305.264 42.245 304.664C42.7825 304.076 43.0575 303.301 43.02 302.489C42.97 301.689 42.62 300.951 42.02 300.401C41.7075 300.126 41.6825 299.651 41.97 299.351C42.245 299.039 42.72 299.014 43.02 299.289C43.92 300.101 44.445 301.201 44.5075 302.414C44.5825 303.614 44.17 304.776 43.3575 305.676C42.5575 306.576 41.445 307.101 40.2325 307.164H39.995C38.8825 307.164 37.8075 306.764 36.9825 306.014C36.0825 305.201 35.545 304.089 35.4825 302.889C35.42 301.676 35.8325 300.526 36.645 299.626C36.77 299.489 36.9075 299.351 37.045 299.226C37.3575 298.951 37.8325 298.989 38.1075 299.301C38.3825 299.614 38.345 300.089 38.0325 300.351C37.9325 300.439 37.845 300.526 37.7575 300.626C37.22 301.226 36.945 302.001 36.9825 302.801C37.0325 303.614 37.3825 304.351 37.9825 304.889ZM39.245 302.526V298.839C39.245 298.426 39.5825 298.089 39.995 298.089C40.42 298.089 40.745 298.426 40.745 298.839V302.526C40.745 302.939 40.42 303.276 39.995 303.276C39.5825 303.276 39.245 302.939 39.245 302.526Z" fill="white"/>
<path d="M95.52 43.7637L78.17 13.7137C75.945 9.85124 71.8075 7.46375 67.345 7.46375H32.645C28.1825 7.46375 24.045 9.85124 21.82 13.7137L4.47 43.7637C2.2325 47.6387 2.2325 52.4012 4.47 56.2637L21.82 86.3137C24.045 90.1887 28.1825 92.5637 32.645 92.5637H67.345C71.8075 92.5637 75.945 90.1887 78.17 86.3137L95.52 56.2637C97.7575 52.4012 97.7575 47.6387 95.52 43.7637ZM68.595 67.2012C64.12 72.1637 57.9825 75.0887 51.3075 75.4387C50.8575 75.4637 50.42 75.4762 49.97 75.4762C43.7825 75.4762 37.895 73.2262 33.2575 69.0512C23.0075 59.8262 22.17 43.9762 31.4075 33.7137C32.12 32.9262 32.8825 32.1762 33.695 31.4887C35.2575 30.1387 37.62 30.3137 38.9825 31.8887C40.3325 33.4512 40.145 35.8262 38.57 37.1762C38.02 37.6512 37.4825 38.1762 36.9825 38.7387C30.52 45.9137 31.095 57.0137 38.2825 63.4762C41.7575 66.6137 46.2325 68.2012 50.92 67.9512C55.595 67.7012 59.895 65.6512 63.02 62.1762C69.4825 55.0012 68.895 43.9012 61.72 37.4387C60.1825 36.0512 60.0575 33.6762 61.445 32.1387C62.8325 30.6012 65.195 30.4762 66.745 31.8637C76.995 41.0887 77.82 56.9387 68.595 67.2012ZM53.745 27.5262V48.7262C53.745 50.7887 52.07 52.4762 49.995 52.4762C48.97 52.4762 48.02 52.0512 47.345 51.3762C46.67 50.7012 46.245 49.7512 46.245 48.7262V27.5262C46.245 25.4512 47.9325 23.7762 49.995 23.7762C52.07 23.7762 53.745 25.4512 53.745 27.5262Z" fill="#BAE0BD"/>
<path d="M96.6075 43.1387L79.2575 13.0887C76.8075 8.85124 72.245 6.21375 67.345 6.21375H32.645C27.745 6.21375 23.1825 8.85124 20.7325 13.0887L3.38248 43.1387C0.932483 47.3762 0.932483 52.6512 3.38248 56.8887L20.7325 86.9387C23.1825 91.1887 27.745 93.8137 32.645 93.8137H67.345C72.245 93.8137 76.8075 91.1887 79.2575 86.9387L96.6075 56.8887C99.0575 52.6512 99.0575 47.3762 96.6075 43.1387ZM67.345 91.3137H32.645C28.6325 91.3137 24.9075 89.1637 22.895 85.6887L5.54498 55.6387C3.54498 52.1762 3.54498 47.8637 5.54498 44.3887L22.895 14.3387C24.9075 10.8637 28.6325 8.71375 32.645 8.71375H67.345C71.3575 8.71375 75.0825 10.8637 77.095 14.3387L94.445 44.3887C96.445 47.8637 96.445 52.1762 94.445 55.6387L77.095 85.6887C75.0825 89.1637 71.3575 91.3137 67.345 91.3137Z" fill="#5E9C76"/>
</g>
<defs>
<clipPath id="clip0_1_55">
<rect width="100" height="100" fill="white"/>
</clipPath>
</defs>
</svg>
