<svg width="100" height="100" viewBox="0 0 100 100" fill="none" xmlns="http://www.w3.org/2000/svg">
<g clip-path="url(#clip0_826_159)">
<path d="M0 50V100H50H100V50V0H50H0V50Z" fill="#007ACC"/>
<path d="M22.114 50.3318L22.0822 54.427L28.5902 54.427H35.0981V72.9191V91.4111H39.7013H44.3044V72.9191L44.3044 54.427H50.8124H57.3203V50.4111C57.3203 48.1889 57.2727 46.3318 57.2092 46.2841C57.1616 46.2207 49.2409 46.1889 39.6378 46.2048L22.1616 46.2524L22.114 50.3318Z" fill="white"/>
<path d="M80.6902 46.1362C83.2299 46.7712 85.1664 47.8981 86.9442 49.7394C87.8648 50.7235 89.2299 52.5172 89.341 52.9458C89.3727 53.0727 85.0235 55.9934 82.3886 57.6283C82.2934 57.6918 81.9124 57.2791 81.4838 56.6442C80.1981 54.7712 78.8489 53.9616 76.7854 53.8188C73.7537 53.6124 71.8013 55.1997 71.8172 57.8505C71.8172 58.6283 71.9283 59.0886 72.2457 59.7235C72.9124 61.1045 74.1505 61.9299 78.0394 63.6124C85.1981 66.6918 88.2616 68.7235 90.1664 71.6124C92.2934 74.8346 92.7696 79.9775 91.3251 83.8029C89.7378 87.9616 85.8013 90.787 80.2616 91.7235C78.5473 92.0251 74.4838 91.9775 72.6426 91.6442C68.6267 90.9299 64.8172 88.9458 62.468 86.3426C61.5473 85.3267 59.7537 82.6759 59.8648 82.4854C59.9124 82.4219 60.3251 82.168 60.7854 81.8981C61.2299 81.6442 62.9124 80.6759 64.4997 79.7553L67.3727 78.0886L67.9759 78.9775C68.8172 80.2632 70.6584 82.0251 71.7696 82.6124C74.96 84.295 79.341 84.0569 81.4997 82.1204C82.4203 81.2791 82.8013 80.4061 82.8013 79.1204C82.8013 77.9616 82.6584 77.4537 82.0553 76.5807C81.2775 75.4696 79.6902 74.5331 75.1823 72.5807C70.0235 70.3584 67.8013 68.9775 65.7696 66.787C64.595 65.5172 63.4838 63.4854 63.0235 61.787C62.6426 60.3743 62.5473 56.8346 62.8489 55.4061C63.9124 50.4219 67.6743 46.9458 73.1029 45.914C74.8648 45.5807 78.96 45.7077 80.6902 46.1362Z" fill="white"/>
</g>
<defs>
<clipPath id="clip0_826_159">
<rect width="100" height="100" fill="white"/>
</clipPath>
</defs>
</svg>
