<svg width="1200" height="630" viewBox="0 0 1200 630" fill="none" xmlns="http://www.w3.org/2000/svg" role="img" aria-labelledby="title desc">
  <title id="title">Spring WebFlux and R2DBC operations issues</title>
  <desc id="desc">A diagram showing WebFlux, converter, R2DBC, MySQL, and external API boundaries where operational issues appear.</desc>
  <rect width="1200" height="630" fill="#F8FAFC"/>
  <rect x="64" y="58" width="1072" height="514" rx="28" fill="#FFFFFF" stroke="#CBD5E1" stroke-width="2"/>
  <text x="104" y="126" fill="#0F172A" font-family="Arial, sans-serif" font-size="42" font-weight="700">WebFlux + R2DBC Ops Notes</text>
  <text x="104" y="166" fill="#475569" font-family="Arial, sans-serif" font-size="21">Problems found at data, network, and database boundaries</text>

  <g transform="translate(104 222)">
    <rect width="178" height="92" rx="16" fill="#DCFCE7" stroke="#22C55E" stroke-width="2"/>
    <text x="24" y="39" fill="#14532D" font-family="Arial, sans-serif" font-size="24" font-weight="700">WebFlux</text>
    <text x="24" y="66" fill="#166534" font-family="Arial, sans-serif" font-size="15">request flow</text>
  </g>
  <path d="M296 268H382" stroke="#64748B" stroke-width="4" stroke-linecap="round"/>
  <path d="M372 253L392 268L372 283" stroke="#64748B" stroke-width="4" stroke-linecap="round" stroke-linejoin="round"/>

  <g transform="translate(408 222)">
    <rect width="178" height="92" rx="16" fill="#E0F2FE" stroke="#0EA5E9" stroke-width="2"/>
    <text x="24" y="39" fill="#075985" font-family="Arial, sans-serif" font-size="24" font-weight="700">Converter</text>
    <text x="24" y="66" fill="#0369A1" font-family="Arial, sans-serif" font-size="15">JSON mapping</text>
  </g>
  <path d="M600 268H686" stroke="#64748B" stroke-width="4" stroke-linecap="round"/>
  <path d="M676 253L696 268L676 283" stroke="#64748B" stroke-width="4" stroke-linecap="round" stroke-linejoin="round"/>

  <g transform="translate(712 222)">
    <rect width="178" height="92" rx="16" fill="#F0FDFA" stroke="#14B8A6" stroke-width="2"/>
    <text x="24" y="39" fill="#134E4A" font-family="Arial, sans-serif" font-size="24" font-weight="700">R2DBC</text>
    <text x="24" y="66" fill="#0F766E" font-family="Arial, sans-serif" font-size="15">row mapping</text>
  </g>
  <path d="M904 268H990" stroke="#64748B" stroke-width="4" stroke-linecap="round"/>
  <path d="M980 253L1000 268L980 283" stroke="#64748B" stroke-width="4" stroke-linecap="round" stroke-linejoin="round"/>

  <g transform="translate(1016 222)">
    <rect width="76" height="92" rx="16" fill="#FEF3C7" stroke="#F59E0B" stroke-width="2"/>
    <text x="18" y="39" fill="#78350F" font-family="Arial, sans-serif" font-size="22" font-weight="700">SQL</text>
    <text x="14" y="66" fill="#92400E" font-family="Arial, sans-serif" font-size="15">data</text>
  </g>

  <g transform="translate(104 382)">
    <rect width="190" height="74" rx="14" fill="#FFF1F2" stroke="#FB7185" stroke-width="2"/>
    <text x="20" y="32" fill="#881337" font-family="Arial, sans-serif" font-size="18" font-weight="700">JSON drift</text>
    <text x="20" y="55" fill="#9F1239" font-family="Arial, sans-serif" font-size="14">old fields remain</text>
  </g>
  <g transform="translate(314 382)">
    <rect width="190" height="74" rx="14" fill="#FDF2F8" stroke="#F472B6" stroke-width="2"/>
    <text x="20" y="32" fill="#831843" font-family="Arial, sans-serif" font-size="18" font-weight="700">Null invariant</text>
    <text x="20" y="55" fill="#9D174D" font-family="Arial, sans-serif" font-size="14">DB and code mismatch</text>
  </g>
  <g transform="translate(524 382)">
    <rect width="190" height="74" rx="14" fill="#EEF2FF" stroke="#818CF8" stroke-width="2"/>
    <text x="20" y="32" fill="#312E81" font-family="Arial, sans-serif" font-size="18" font-weight="700">Buffer limit</text>
    <text x="20" y="55" fill="#3730A3" font-family="Arial, sans-serif" font-size="14">large 200 OK body</text>
  </g>
  <g transform="translate(734 382)">
    <rect width="190" height="74" rx="14" fill="#F5F3FF" stroke="#A78BFA" stroke-width="2"/>
    <text x="20" y="32" fill="#4C1D95" font-family="Arial, sans-serif" font-size="18" font-weight="700">Token index</text>
    <text x="20" y="55" fill="#5B21B6" font-family="Arial, sans-serif" font-size="14">length meets keys</text>
  </g>
  <g transform="translate(944 382)">
    <rect width="148" height="74" rx="14" fill="#F1F5F9" stroke="#94A3B8" stroke-width="2"/>
    <text x="18" y="32" fill="#1E293B" font-family="Arial, sans-serif" font-size="18" font-weight="700">Guardrails</text>
    <text x="18" y="55" fill="#334155" font-family="Arial, sans-serif" font-size="14">tests and DDL</text>
  </g>

  <path d="M180 356C180 338 198 326 220 326H497" stroke="#FB7185" stroke-width="3" stroke-linecap="round" stroke-dasharray="8 9"/>
  <path d="M410 356C410 338 428 326 450 326H801" stroke="#F472B6" stroke-width="3" stroke-linecap="round" stroke-dasharray="8 9"/>
  <path d="M620 356C620 338 638 326 660 326H1048" stroke="#818CF8" stroke-width="3" stroke-linecap="round" stroke-dasharray="8 9"/>
</svg>
