<svg width="1200" height="630" viewBox="0 0 1200 630" fill="none" xmlns="http://www.w3.org/2000/svg" role="img" aria-labelledby="title desc">
  <title id="title">Spring WebFlux plus R2DBC operations issues</title>
  <desc id="desc">A blog cover with Spring WebFlux and R2DBC style icons connected by a plus sign, with small markers for production issues.</desc>
  <defs>
    <linearGradient id="background" x1="90" y1="40" x2="1110" y2="590" gradientUnits="userSpaceOnUse">
      <stop stop-color="#F6FAF5"/>
      <stop offset="0.48" stop-color="#F8FBFF"/>
      <stop offset="1" stop-color="#EEF4FF"/>
    </linearGradient>
    <linearGradient id="springTile" x1="260" y1="160" x2="428" y2="460" gradientUnits="userSpaceOnUse">
      <stop stop-color="#7ED957"/>
      <stop offset="1" stop-color="#28A745"/>
    </linearGradient>
    <linearGradient id="r2dbcTile" x1="774" y1="156" x2="948" y2="460" gradientUnits="userSpaceOnUse">
      <stop stop-color="#2D3C82"/>
      <stop offset="1" stop-color="#111A4E"/>
    </linearGradient>
    <linearGradient id="connector" x1="452" y1="315" x2="748" y2="315" gradientUnits="userSpaceOnUse">
      <stop stop-color="#22C55E"/>
      <stop offset="0.5" stop-color="#64748B"/>
      <stop offset="1" stop-color="#273574"/>
    </linearGradient>
    <filter id="softShadow" x="-20%" y="-20%" width="140%" height="150%" color-interpolation-filters="sRGB">
      <feDropShadow dx="0" dy="18" stdDeviation="18" flood-color="#0F172A" flood-opacity="0.16"/>
    </filter>
    <pattern id="grid" width="34" height="34" patternUnits="userSpaceOnUse">
      <path d="M34 0H0V34" stroke="#D8E2EA" stroke-width="1" opacity="0.5"/>
    </pattern>
  </defs>

  <rect width="1200" height="630" fill="url(#background)"/>
  <rect width="1200" height="630" fill="url(#grid)" opacity="0.42"/>
  <circle cx="135" cy="98" r="130" fill="#C7F9CC" opacity="0.46"/>
  <circle cx="1076" cy="526" r="166" fill="#DDE7FF" opacity="0.72"/>
  <path d="M78 501C180 444 282 429 392 456C512 486 604 550 742 526C850 508 921 444 1035 459" stroke="#D6E0EA" stroke-width="3" stroke-linecap="round" stroke-dasharray="8 14"/>

  <path d="M454 315H746" stroke="url(#connector)" stroke-width="18" stroke-linecap="round"/>
  <path d="M492 315H708" stroke="#FFFFFF" stroke-width="4" stroke-linecap="round" stroke-dasharray="2 22" opacity="0.8"/>

  <g filter="url(#softShadow)">
    <rect x="184" y="168" width="288" height="288" rx="44" fill="#FFFFFF"/>
    <rect x="200" y="184" width="256" height="256" rx="36" fill="#EAFBE8"/>
    <circle cx="328" cy="312" r="88" fill="url(#springTile)"/>
    <path d="M389 265C352 261 309 272 282 299C255 326 250 361 264 382C286 358 315 341 350 331C319 340 294 357 275 382C298 397 337 393 365 366C393 338 401 297 389 265Z" fill="#FFFFFF"/>
    <path d="M278 379C298 348 323 327 361 312" stroke="#1F8A3A" stroke-width="8" stroke-linecap="round" opacity="0.45"/>
    <path d="M244 314C244 266 281 227 329 225" stroke="#FFFFFF" stroke-width="8" stroke-linecap="round" opacity="0.65"/>
    <path d="M390 338C393 288 359 243 309 235" stroke="#FFFFFF" stroke-width="8" stroke-linecap="round" opacity="0.45"/>
    <text x="328" y="492" fill="#14532D" font-family="Inter, Arial, sans-serif" font-size="27" font-weight="800" text-anchor="middle">Spring WebFlux</text>
  </g>

  <g filter="url(#softShadow)">
    <rect x="728" y="168" width="288" height="288" rx="44" fill="#FFFFFF"/>
    <rect x="744" y="184" width="256" height="256" rx="36" fill="#EFF4FF"/>
    <circle cx="872" cy="312" r="88" fill="url(#r2dbcTile)"/>
    <ellipse cx="872" cy="272" rx="54" ry="21" fill="#FFFFFF"/>
    <path d="M818 272V343C818 355 842 365 872 365C902 365 926 355 926 343V272" fill="#DDE6FF"/>
    <path d="M818 272V343C818 355 842 365 872 365C902 365 926 355 926 343V272" stroke="#FFFFFF" stroke-width="8"/>
    <ellipse cx="872" cy="272" rx="54" ry="21" stroke="#FFFFFF" stroke-width="8"/>
    <path d="M821 308C831 319 851 325 872 325C893 325 913 319 923 308" stroke="#1D2B68" stroke-width="7" stroke-linecap="round" opacity="0.35"/>
    <path d="M831 236H875L911 272" stroke="#AFC0FF" stroke-width="10" stroke-linecap="round" stroke-linejoin="round"/>
    <circle cx="831" cy="236" r="9" fill="#AFC0FF"/>
    <circle cx="875" cy="236" r="9" fill="#AFC0FF"/>
    <circle cx="911" cy="272" r="9" fill="#AFC0FF"/>
    <text x="872" y="492" fill="#172554" font-family="Inter, Arial, sans-serif" font-size="27" font-weight="800" text-anchor="middle">R2DBC</text>
  </g>

  <g filter="url(#softShadow)">
    <circle cx="600" cy="312" r="48" fill="#FFFFFF"/>
    <circle cx="600" cy="312" r="36" fill="#0F172A"/>
    <path d="M600 293V331" stroke="#FFFFFF" stroke-width="8" stroke-linecap="round"/>
    <path d="M581 312H619" stroke="#FFFFFF" stroke-width="8" stroke-linecap="round"/>
  </g>

</svg>
