<svg xmlns="http://www.w3.org/2000/svg" viewBox="0 0 319 477" role="img" aria-label="Pinia logo">
  <defs>
    <linearGradient id="pinia-a">
      <stop offset="0" stop-color="#52ce63" />
      <stop offset="1" stop-color="#51a256" />
    </linearGradient>
    <linearGradient
      id="pinia-b"
      x1="55.342075%"
      x2="42.816933%"
      y1="0%"
      y2="42.862855%"
      href="#pinia-a"
    />
    <linearGradient
      id="pinia-c"
      x1="55.348642%"
      x2="42.808103%"
      y1="0%"
      y2="42.862855%"
      href="#pinia-a"
    />
    <linearGradient id="pinia-d" x1="50%" x2="50%" y1="0%" y2="58.811243%">
      <stop offset="0" stop-color="#8ae99c" />
      <stop offset="1" stop-color="#52ce63" />
    </linearGradient>
    <linearGradient id="pinia-e" x1="51.37763%" x2="44.584719%" y1="17.472551%" y2="100%">
      <stop offset="0" stop-color="#ffe56c" />
      <stop offset="1" stop-color="#ffc63a" />
    </linearGradient>
  </defs>
  <g fill="none" fill-rule="evenodd" transform="translate(-34 -24)">
    <g transform="matrix(.99254615 .12186934 -.12186934 .99254615 33.922073 .976691)">
      <path
        fill="url(#pinia-b)"
        d="M103.950535 258.274149c44.361599-4.360825 60.014503-40.391282 65.353094-94.699444s-30.93219-103.451001-46.020347-101.9678079c-15.088156 1.4831932-63.0385313 58.9051239-68.3771222 113.2132869-5.3385908 54.308162 4.6827754 87.814791 49.0443752 83.453965Z"
        transform="matrix(.70710678 -.70710678 .70710678 .70710678 -80.496332 125.892944)"
      />
      <path
        fill="url(#pinia-c)"
        d="M275.876752 258.273992c44.3616 4.360826 53.167133-29.265322 47.828542-83.573485-5.338591-54.308162-52.073133-111.6105744-67.16129-113.0937675-15.088156-1.4831931-52.57477 47.5401275-47.236179 101.8482895s22.207328 90.458137 66.568927 94.818963Z"
        transform="matrix(.70710678 .70710678 -.70710678 .70710678 191.403399 -141.861963)"
      />
      <path
        fill="url(#pinia-d)"
        d="M188.370027 216.876305c39.941834 0 50.95265-38.251987 50.95265-97.89874C239.322677 59.330812 201.954944.87630544 188.370027.87630544S136.322677 59.3308118 136.322677 118.977565c0 59.646753 12.105516 97.89874 52.04735 97.89874Z"
      />
    </g>
    <path
      fill="url(#pinia-e)"
      d="M184.473473 501C267.592327 501 335 476.854852 335 367.354852S267.592327 168 184.473473 168C101.354618 168 34 257.854852 34 367.354852S101.354618 501 184.473473 501Z"
    />
    <ellipse cx="260.5" cy="335" fill="#eaadcc" rx="21.5" ry="10" />
    <ellipse
      cx="102.5"
      cy="329"
      fill="#eaadcc"
      rx="21.5"
      ry="10"
      transform="matrix(.99254615 .12186934 -.12186934 .99254615 40.859033 -10.039292)"
    />
    <g transform="matrix(-.99939083 .0348995 .0348995 .99939083 269.284825 271.027667)">
      <path
        d="M73.1046985 58.2728794c6.7372416 4.9130333 14.3132632 6.6640587 22.7280649 5.2530761 8.4148016-1.4109825 14.5054466-5.2535769 18.2719346-11.527783"
        stroke="#000"
        stroke-linecap="round"
        stroke-linejoin="round"
        stroke-width="6"
        transform="matrix(.9998477 .01745241 -.01745241 .9998477 1.026464 -1.624794)"
      />
      <path
        fill="#000"
        d="M154.501124 3c-5.937545 0-11.312782 2.40629805-15.203644 6.29680621C135.40654 13.1873915 133 18.5622607 133 24.499438c0 5.9376888 2.406488 11.3127422 6.297291 15.2034272C143.188177 43.5936325 148.563488 46 154.501124 46c5.937109 0 11.311896-2.4063889 15.202387-6.2972348C173.59381 35.8121117 176 30.4371016 176 24.499438c0-5.9371521-2.406242-11.3119781-6.296677-15.20253181C165.812854 5.40631945 160.438142 3 154.501124 3Z"
      />
      <path
        fill="#fff"
        d="M154 21c0-3.865549 3.135362-7 6.999413-7C164.865812 14 168 17.134451 168 21s-3.134188 7-7.000587 7C157.135362 27.9988265 154 24.865549 154 21Z"
      />
      <path
        fill="#000"
        d="M24.5 13c-5.9375292 0-11.312426 2.406268-15.20299427 6.2967181C5.40631109 23.1872946 3 28.5621946 3 34.499438c0 5.9377549 2.40625962 11.3128391 6.29681766 15.2035153C13.1874087 53.5936625 18.5623795 56 24.5 56c5.9371249 0 11.3122514-2.406419 15.2030371-6.2973229C43.5935812 45.8120148 46 40.8370355 46 34.499438c0-5.937086-2.4064703-11.3118811-6.297151-15.2024437C35.812086 15.4063495 30.4370336 13 24.5 13Z"
      />
      <g fill="#fff">
        <path
          fill-rule="nonzero"
          stroke="#fff"
          stroke-width="3"
          d="M136 24.499438C136 34.7179612 144.282911 43 154.501124 43 164.718213 43 173 34.7179612 173 24.499438 173 14.2820388 164.718213 6 154.501124 6 144.282911 6 136 14.2820388 136 24.499438Zm-6 0C130 10.9682426 140.96929 0 154.501124 0 168.031962 0 179 10.9683711 179 24.499438 179 38.0313987 168.032192 49 154.501124 49 140.96906 49 130 38.0315272 130 24.499438Z"
        />
        <path
          fill-rule="nonzero"
          stroke="#fff"
          stroke-width="3"
          d="M6 34.499438C6 44.7179612 14.2817873 53 24.5 53 34.7170889 53 43 44.7179612 43 34.499438 43 24.2820388 34.7170889 16 24.5 16 14.2817873 16 6 24.2820388 6 34.499438Zm-6 0C0 20.968141 10.9682681 10 24.5 10 38.0309398 10 49 20.9684728 49 34.499438 49 48.0312971 38.03117 59 24.5 59 10.968038 59 0 48.0316289 0 34.499438Z"
        />
        <path d="M24 31c0-3.865549 3.134451-7 7-7s7 3.134451 7 7-3.134451 7-7 7-7-3.134451-7-7Z" />
      </g>
    </g>
    <g stroke-linecap="round" stroke-width="11">
      <g stroke="#ecb732">
        <path d="m70.5 377.5 74 77" />
        <path d="m134.5 386.5-47 50" />
      </g>
      <g stroke="#ecb732" transform="matrix(-1 0 0 1 298 377)">
        <path d="m.5.5 74 77" />
        <path d="m64.5 9.5-47 50" />
      </g>
      <g stroke="#ffc73b" transform="matrix(0 1 -1 0 215 207)">
        <path d="m.5.5 49 49" />
        <path d="m.5 10.5 49 49" transform="matrix(-1 0 0 1 50 0)" />
      </g>
    </g>
  </g>
</svg>
